<?xml version="1.0" encoding="UTF-8" standalone="no"?>
<!-- Created with Inkscape (http://www.inkscape.org/) -->
<svg
   xmlns:dc="http://purl.org/dc/elements/1.1/"
   xmlns:cc="http://creativecommons.org/ns#"
   xmlns:rdf="http://www.w3.org/1999/02/22-rdf-syntax-ns#"
   xmlns:svg="http://www.w3.org/2000/svg"
   xmlns="http://www.w3.org/2000/svg"
   xmlns:xlink="http://www.w3.org/1999/xlink"
   xmlns:sodipodi="http://sodipodi.sourceforge.net/DTD/sodipodi-0.dtd"
   xmlns:inkscape="http://www.inkscape.org/namespaces/inkscape"
   id="svg2"
   sodipodi:version="0.32"
   inkscape:version="0.46"
   width="210mm"
   height="297mm"
   sodipodi:docname="cloud.svg"
   inkscape:output_extension="org.inkscape.output.svg.inkscape">
  <metadata
     id="metadata7">
    <rdf:RDF>
      <cc:Work
         rdf:about="">
        <dc:format>image/svg+xml</dc:format>
        <dc:type
           rdf:resource="http://purl.org/dc/dcmitype/StillImage" />
      </cc:Work>
    </rdf:RDF>
  </metadata>
  <defs
     id="defs5">
    <linearGradient
       id="linearGradient10542">
      <stop
         style="stop-color:#0007ff;stop-opacity:1;"
         offset="0"
         id="stop10544" />
      <stop
         style="stop-color:#000000;stop-opacity:0;"
         offset="1"
         id="stop10546" />
    </linearGradient>
    <linearGradient
       id="linearGradient10496">
      <stop
         style="stop-color:#0000ec;stop-opacity:1;"
         offset="0"
         id="stop10498" />
      <stop
         id="stop10510"
         offset="0.5"
         style="stop-color:#0000b1;stop-opacity:0.74901961;" />
      <stop
         id="stop10508"
         offset="1"
         style="stop-color:#ffffff;stop-opacity:0.49803922;" />
    </linearGradient>
    <linearGradient
       id="linearGradient10484">
      <stop
         style="stop-color:#0006ff;stop-opacity:1;"
         offset="0"
         id="stop10486" />
      <stop
         style="stop-color:#ffffff;stop-opacity:1;"
         offset="1"
         id="stop10488" />
    </linearGradient>
    <inkscape:perspective
       sodipodi:type="inkscape:persp3d"
       inkscape:vp_x="0 : 526.18109 : 1"
       inkscape:vp_y="0 : 1000 : 0"
       inkscape:vp_z="744.09448 : 526.18109 : 1"
       inkscape:persp3d-origin="372.04724 : 350.78739 : 1"
       id="perspective9" />
    <linearGradient
       inkscape:collect="always"
       xlink:href="#linearGradient10496"
       id="linearGradient10494"
       x1="36.634598"
       y1="117.6875"
       x2="341.20914"
       y2="117.6875"
       gradientUnits="userSpaceOnUse"
       spreadMethod="pad" />
    <linearGradient
       inkscape:collect="always"
       xlink:href="#linearGradient10484"
       id="linearGradient10535"
       gradientUnits="userSpaceOnUse"
       x1="188.5625"
       y1="54.69725"
       x2="188.5625"
       y2="299.86526" />
    <radialGradient
       inkscape:collect="always"
       xlink:href="#linearGradient10484"
       id="radialGradient10538"
       cx="189.70312"
       cy="72.535751"
       fx="189.70312"
       fy="72.535751"
       r="153.06837"
       gradientTransform="matrix(-1.8474175,-1.6789933e-8,1.9934806e-8,-1.0265981,540.164,285.36157)"
       gradientUnits="userSpaceOnUse" />
    <linearGradient
       inkscape:collect="always"
       xlink:href="#linearGradient10542"
       id="linearGradient10550"
       x1="156.30106"
       y1="161.47324"
       x2="157.5919"
       y2="299.86526"
       gradientUnits="userSpaceOnUse" />
  </defs>
  <sodipodi:namedview
     inkscape:window-height="749"
     inkscape:window-width="1274"
     inkscape:pageshadow="2"
     inkscape:pageopacity="0.0"
     guidetolerance="10.0"
     gridtolerance="10.0"
     objecttolerance="10.0"
     borderopacity="1.0"
     bordercolor="#666666"
     pagecolor="#ffffff"
     id="base"
     showgrid="false"
     inkscape:zoom="0.44281333"
     inkscape:cx="166.81585"
     inkscape:cy="791.56259"
     inkscape:window-x="0"
     inkscape:window-y="0"
     inkscape:current-layer="svg2" />
  <path
     style="opacity:1;fill:url(#linearGradient10550);fill-opacity:1;fill-rule:nonzero;stroke:#0000cc;stroke-width:1;stroke-linecap:butt;stroke-linejoin:round;stroke-miterlimit:4;stroke-dasharray:none;stroke-opacity:1"
     d="M 182.90625 56.46875 C 158.03613 56.46875 136.40019 68.896157 125.3125 87.21875 C 120.23267 86.30375 114.95832 85.8125 109.53125 85.8125 C 70.264139 85.8125 38.40625 111.11688 38.40625 142.28125 C 38.40625 156.4601 45.017262 169.39349 55.90625 179.3125 C 43.734624 190.42808 36.125 206.13378 36.125 223.5625 C 36.125 257.22002 64.470901 284.53124 99.375 284.53125 C 116.3389 284.53125 131.73369 278.09054 143.09375 267.59375 C 158.30422 285.98447 184.12516 298.09374 213.40625 298.09375 C 260.15281 298.09375 298.09374 267.23929 298.09375 229.21875 C 298.09375 219.28222 295.47513 209.84755 290.8125 201.3125 C 320.26972 192.99597 341 173.23161 341 150.1875 C 341 119.64641 304.56421 94.843748 259.6875 94.84375 C 254.5814 94.84375 249.59598 95.198751 244.75 95.8125 C 235.81668 72.910205 211.48717 56.46875 182.90625 56.46875 z "
     id="path2382" />
  <path
     style="opacity:1;fill:url(#radialGradient10538);fill-opacity:1;fill-rule:nonzero;stroke:none;stroke-width:3.54300000000000015;stroke-linecap:butt;stroke-linejoin:round;stroke-miterlimit:4;stroke-dasharray:none;stroke-opacity:1"
     d="M 182.90625 56.46875 C 158.03613 56.46875 136.40019 68.896157 125.3125 87.21875 C 120.23267 86.30375 114.95832 85.8125 109.53125 85.8125 C 70.264139 85.8125 38.40625 111.11688 38.40625 142.28125 C 38.40625 156.24028 44.817214 168.98692 55.40625 178.84375 C 82.274574 167.24906 115.92625 160.34375 152.4375 160.34375 C 214.37093 160.34375 268.08722 180.17105 294.40625 209.125 C 293.39821 206.44683 292.19483 203.84289 290.8125 201.3125 C 320.26972 192.99597 341 173.23161 341 150.1875 C 341 119.64641 304.56421 94.843748 259.6875 94.84375 C 254.5814 94.84375 249.59598 95.198751 244.75 95.8125 C 235.81668 72.910205 211.48717 56.46875 182.90625 56.46875 z "
     id="path10512" />
  <rect
     style="opacity:1;fill:none;fill-opacity:1;fill-rule:nonzero;stroke:none;stroke-width:1;stroke-linecap:butt;stroke-linejoin:round;stroke-miterlimit:4;stroke-dasharray:none;stroke-opacity:1"
     id="rect10599"
     width="329.71002"
     height="259.70303"
     x="22.582878"
     y="47.424053"
     inkscape:export-xdpi="90"
     inkscape:export-ydpi="90" />
</svg>
