<?xml version="1.0" encoding="UTF-8" standalone="no"?>
<!-- Created with Inkscape (http://www.inkscape.org/) -->
<svg
   xmlns:dc="http://purl.org/dc/elements/1.1/"
   xmlns:cc="http://creativecommons.org/ns#"
   xmlns:rdf="http://www.w3.org/1999/02/22-rdf-syntax-ns#"
   xmlns:svg="http://www.w3.org/2000/svg"
   xmlns="http://www.w3.org/2000/svg"
   xmlns:xlink="http://www.w3.org/1999/xlink"
   xmlns:sodipodi="http://sodipodi.sourceforge.net/DTD/sodipodi-0.dtd"
   xmlns:inkscape="http://www.inkscape.org/namespaces/inkscape"
   id="svg2"
   sodipodi:version="0.32"
   inkscape:version="0.46"
   width="210mm"
   height="297mm"
   sodipodi:docname="march8.svg"
   inkscape:output_extension="org.inkscape.output.svg.inkscape">
  <metadata
     id="metadata7">
    <rdf:RDF>
      <cc:Work
         rdf:about="">
        <dc:format>image/svg+xml</dc:format>
        <dc:type
           rdf:resource="http://purl.org/dc/dcmitype/StillImage" />
      </cc:Work>
    </rdf:RDF>
  </metadata>
  <defs
     id="defs5">
    <linearGradient
       inkscape:collect="always"
       id="linearGradient4776">
      <stop
         style="stop-color:#000000;stop-opacity:1;"
         offset="0"
         id="stop4778" />
      <stop
         style="stop-color:#000000;stop-opacity:0;"
         offset="1"
         id="stop4780" />
    </linearGradient>
    <linearGradient
       inkscape:collect="always"
       id="linearGradient4764">
      <stop
         style="stop-color:#000000;stop-opacity:1;"
         offset="0"
         id="stop4766" />
      <stop
         style="stop-color:#000000;stop-opacity:0;"
         offset="1"
         id="stop4768" />
    </linearGradient>
    <linearGradient
       inkscape:collect="always"
       id="linearGradient4746">
      <stop
         style="stop-color:#000000;stop-opacity:1;"
         offset="0"
         id="stop4748" />
      <stop
         style="stop-color:#000000;stop-opacity:0;"
         offset="1"
         id="stop4750" />
    </linearGradient>
    <linearGradient
       inkscape:collect="always"
       id="linearGradient4712">
      <stop
         style="stop-color:#000000;stop-opacity:1;"
         offset="0"
         id="stop4714" />
      <stop
         style="stop-color:#000000;stop-opacity:0;"
         offset="1"
         id="stop4716" />
    </linearGradient>
    <linearGradient
       inkscape:collect="always"
       id="linearGradient4694">
      <stop
         style="stop-color:#000000;stop-opacity:1;"
         offset="0"
         id="stop4696" />
      <stop
         style="stop-color:#000000;stop-opacity:0;"
         offset="1"
         id="stop4698" />
    </linearGradient>
    <linearGradient
       id="linearGradient3198">
      <stop
         style="stop-color:#c1ff00;stop-opacity:1;"
         offset="0"
         id="stop3200" />
      <stop
         style="stop-color:#ffffff;stop-opacity:1;"
         offset="1"
         id="stop3202" />
    </linearGradient>
    <inkscape:perspective
       sodipodi:type="inkscape:persp3d"
       inkscape:vp_x="0 : 526.18109 : 1"
       inkscape:vp_y="0 : 1000 : 0"
       inkscape:vp_z="744.09448 : 526.18109 : 1"
       inkscape:persp3d-origin="372.04724 : 350.78739 : 1"
       id="perspective9" />
    <linearGradient
       inkscape:collect="always"
       xlink:href="#linearGradient3198"
       id="linearGradient3204"
       x1="305.61734"
       y1="164.86218"
       x2="345.5"
       y2="164.86218"
       gradientUnits="userSpaceOnUse"
       spreadMethod="pad" />
    <linearGradient
       inkscape:collect="always"
       xlink:href="#linearGradient3198"
       id="linearGradient4650"
       x1="295.61111"
       y1="169.86218"
       x2="312.72385"
       y2="169.86218"
       gradientUnits="userSpaceOnUse" />
    <linearGradient
       inkscape:collect="always"
       xlink:href="#linearGradient3198"
       id="linearGradient4665"
       gradientUnits="userSpaceOnUse"
       spreadMethod="pad"
       x1="305.61734"
       y1="164.86218"
       x2="345.5"
       y2="164.86218"
       gradientTransform="matrix(0.6178573,0,0,0.6178573,117.28568,56.313384)" />
    <linearGradient
       inkscape:collect="always"
       xlink:href="#linearGradient3198"
       id="linearGradient4667"
       gradientUnits="userSpaceOnUse"
       x1="295.61111"
       y1="169.86218"
       x2="312.72385"
       y2="169.86218"
       gradientTransform="matrix(0.6178573,0,0,0.6178573,117.28568,56.313384)" />
    <linearGradient
       inkscape:collect="always"
       xlink:href="#linearGradient3198"
       id="linearGradient4941"
       gradientUnits="userSpaceOnUse"
       x1="271.83228"
       y1="191.68472"
       x2="310.5"
       y2="191.68472" />
    <linearGradient
       inkscape:collect="always"
       xlink:href="#linearGradient4764"
       id="linearGradient4943"
       gradientUnits="userSpaceOnUse"
       x1="271.83228"
       y1="191.68472"
       x2="310.5"
       y2="191.68472" />
    <linearGradient
       inkscape:collect="always"
       xlink:href="#linearGradient4776"
       id="linearGradient4958"
       gradientUnits="userSpaceOnUse"
       x1="274.5"
       y1="159.70593"
       x2="305.5"
       y2="159.70593" />
    <radialGradient
       inkscape:collect="always"
       xlink:href="#linearGradient4694"
       id="radialGradient4961"
       gradientUnits="userSpaceOnUse"
       gradientTransform="matrix(1,0,0,1.8007811,0,-147.16623)"
       cx="323.81512"
       cy="183.77837"
       fx="323.81512"
       fy="183.77837"
       r="20.500093" />
    <linearGradient
       inkscape:collect="always"
       xlink:href="#linearGradient3198"
       id="linearGradient4964"
       gradientUnits="userSpaceOnUse"
       gradientTransform="translate(7.765824e-6,-2.1988288e-6)"
       x1="295.61111"
       y1="169.86218"
       x2="312.72385"
       y2="169.86218" />
    <linearGradient
       inkscape:collect="always"
       xlink:href="#linearGradient4712"
       id="linearGradient4966"
       gradientUnits="userSpaceOnUse"
       x1="288.92838"
       y1="183.77837"
       x2="316.00681"
       y2="183.77837" />
    <radialGradient
       inkscape:collect="always"
       xlink:href="#linearGradient3198"
       id="radialGradient4969"
       gradientUnits="userSpaceOnUse"
       gradientTransform="matrix(1,0,0,0.9017059,0,17.268881)"
       cx="337.08917"
       cy="175.68588"
       fx="337.08917"
       fy="175.68588"
       r="31.965738" />
    <linearGradient
       inkscape:collect="always"
       xlink:href="#linearGradient4746"
       id="linearGradient4971"
       gradientUnits="userSpaceOnUse"
       x1="305.12344"
       y1="175.68588"
       x2="369.0549"
       y2="175.68588" />
    <linearGradient
       inkscape:collect="always"
       xlink:href="#linearGradient3198"
       id="linearGradient5094"
       gradientUnits="userSpaceOnUse"
       x1="271.83228"
       y1="191.68472"
       x2="310.5"
       y2="191.68472" />
    <linearGradient
       inkscape:collect="always"
       xlink:href="#linearGradient4764"
       id="linearGradient5096"
       gradientUnits="userSpaceOnUse"
       x1="271.83228"
       y1="191.68472"
       x2="310.5"
       y2="191.68472" />
    <radialGradient
       inkscape:collect="always"
       xlink:href="#linearGradient3198"
       id="radialGradient5098"
       gradientUnits="userSpaceOnUse"
       gradientTransform="matrix(1,0,0,0.9017059,0,17.268881)"
       cx="337.08917"
       cy="175.68588"
       fx="337.08917"
       fy="175.68588"
       r="31.965738" />
    <linearGradient
       inkscape:collect="always"
       xlink:href="#linearGradient4746"
       id="linearGradient5100"
       gradientUnits="userSpaceOnUse"
       x1="305.12344"
       y1="175.68588"
       x2="369.0549"
       y2="175.68588" />
    <linearGradient
       inkscape:collect="always"
       xlink:href="#linearGradient3198"
       id="linearGradient5102"
       gradientUnits="userSpaceOnUse"
       gradientTransform="translate(7.765824e-6,-2.1988288e-6)"
       x1="295.61111"
       y1="169.86218"
       x2="312.72385"
       y2="169.86218" />
    <linearGradient
       inkscape:collect="always"
       xlink:href="#linearGradient4712"
       id="linearGradient5104"
       gradientUnits="userSpaceOnUse"
       x1="288.92838"
       y1="183.77837"
       x2="316.00681"
       y2="183.77837" />
    <radialGradient
       inkscape:collect="always"
       xlink:href="#linearGradient4694"
       id="radialGradient5106"
       gradientUnits="userSpaceOnUse"
       gradientTransform="matrix(1,0,0,1.8007811,0,-147.16623)"
       cx="323.81512"
       cy="183.77837"
       fx="323.81512"
       fy="183.77837"
       r="20.500093" />
    <linearGradient
       inkscape:collect="always"
       xlink:href="#linearGradient4776"
       id="linearGradient5108"
       gradientUnits="userSpaceOnUse"
       x1="274.5"
       y1="159.70593"
       x2="305.5"
       y2="159.70593" />
    <linearGradient
       inkscape:collect="always"
       xlink:href="#linearGradient3198"
       id="linearGradient5134"
       gradientUnits="userSpaceOnUse"
       x1="271.83228"
       y1="191.68472"
       x2="310.5"
       y2="191.68472" />
    <linearGradient
       inkscape:collect="always"
       xlink:href="#linearGradient4764"
       id="linearGradient5136"
       gradientUnits="userSpaceOnUse"
       x1="271.83228"
       y1="191.68472"
       x2="310.5"
       y2="191.68472" />
    <radialGradient
       inkscape:collect="always"
       xlink:href="#linearGradient3198"
       id="radialGradient5138"
       gradientUnits="userSpaceOnUse"
       gradientTransform="matrix(1,0,0,0.9017059,0,17.268881)"
       cx="337.08917"
       cy="175.68588"
       fx="337.08917"
       fy="175.68588"
       r="31.965738" />
    <linearGradient
       inkscape:collect="always"
       xlink:href="#linearGradient4746"
       id="linearGradient5140"
       gradientUnits="userSpaceOnUse"
       x1="305.12344"
       y1="175.68588"
       x2="369.0549"
       y2="175.68588" />
    <linearGradient
       inkscape:collect="always"
       xlink:href="#linearGradient3198"
       id="linearGradient5142"
       gradientUnits="userSpaceOnUse"
       gradientTransform="translate(7.765824e-6,-2.1988288e-6)"
       x1="295.61111"
       y1="169.86218"
       x2="312.72385"
       y2="169.86218" />
    <linearGradient
       inkscape:collect="always"
       xlink:href="#linearGradient4712"
       id="linearGradient5144"
       gradientUnits="userSpaceOnUse"
       x1="288.92838"
       y1="183.77837"
       x2="316.00681"
       y2="183.77837" />
    <radialGradient
       inkscape:collect="always"
       xlink:href="#linearGradient4694"
       id="radialGradient5146"
       gradientUnits="userSpaceOnUse"
       gradientTransform="matrix(1,0,0,1.8007811,0,-147.16623)"
       cx="323.81512"
       cy="183.77837"
       fx="323.81512"
       fy="183.77837"
       r="20.500093" />
    <linearGradient
       inkscape:collect="always"
       xlink:href="#linearGradient4776"
       id="linearGradient5148"
       gradientUnits="userSpaceOnUse"
       x1="274.5"
       y1="159.70593"
       x2="305.5"
       y2="159.70593" />
    <linearGradient
       inkscape:collect="always"
       xlink:href="#linearGradient4776"
       id="linearGradient5151"
       gradientUnits="userSpaceOnUse"
       x1="274.5"
       y1="159.70593"
       x2="305.5"
       y2="159.70593" />
    <linearGradient
       inkscape:collect="always"
       xlink:href="#linearGradient3198"
       id="linearGradient5158"
       gradientUnits="userSpaceOnUse"
       x1="271.83228"
       y1="191.68472"
       x2="310.5"
       y2="191.68472" />
    <linearGradient
       inkscape:collect="always"
       xlink:href="#linearGradient4764"
       id="linearGradient5160"
       gradientUnits="userSpaceOnUse"
       x1="271.83228"
       y1="191.68472"
       x2="310.5"
       y2="191.68472" />
    <radialGradient
       inkscape:collect="always"
       xlink:href="#linearGradient3198"
       id="radialGradient5172"
       gradientUnits="userSpaceOnUse"
       gradientTransform="matrix(1,0,0,0.9017059,0,17.268881)"
       cx="337.08917"
       cy="175.68588"
       fx="337.08917"
       fy="175.68588"
       r="31.965738" />
    <linearGradient
       inkscape:collect="always"
       xlink:href="#linearGradient4746"
       id="linearGradient5174"
       gradientUnits="userSpaceOnUse"
       x1="305.12344"
       y1="175.68588"
       x2="369.0549"
       y2="175.68588" />
    <linearGradient
       inkscape:collect="always"
       xlink:href="#linearGradient3198"
       id="linearGradient5176"
       gradientUnits="userSpaceOnUse"
       gradientTransform="translate(7.765824e-6,-2.1988288e-6)"
       x1="295.61111"
       y1="169.86218"
       x2="312.72385"
       y2="169.86218" />
    <linearGradient
       inkscape:collect="always"
       xlink:href="#linearGradient4712"
       id="linearGradient5178"
       gradientUnits="userSpaceOnUse"
       x1="288.92838"
       y1="183.77837"
       x2="316.00681"
       y2="183.77837" />
    <radialGradient
       inkscape:collect="always"
       xlink:href="#linearGradient4694"
       id="radialGradient5180"
       gradientUnits="userSpaceOnUse"
       gradientTransform="matrix(1,0,0,1.8007811,0,-147.16623)"
       cx="323.81512"
       cy="183.77837"
       fx="323.81512"
       fy="183.77837"
       r="20.500093" />
    <radialGradient
       inkscape:collect="always"
       xlink:href="#linearGradient4694"
       id="radialGradient5183"
       gradientUnits="userSpaceOnUse"
       gradientTransform="matrix(1,0,0,1.8007811,0,-147.16623)"
       cx="323.81512"
       cy="183.77837"
       fx="323.81512"
       fy="183.77837"
       r="20.500093" />
    <linearGradient
       inkscape:collect="always"
       xlink:href="#linearGradient3198"
       id="linearGradient5186"
       gradientUnits="userSpaceOnUse"
       gradientTransform="translate(7.765824e-6,-2.1988288e-6)"
       x1="295.61111"
       y1="169.86218"
       x2="312.72385"
       y2="169.86218" />
    <linearGradient
       inkscape:collect="always"
       xlink:href="#linearGradient4712"
       id="linearGradient5188"
       gradientUnits="userSpaceOnUse"
       x1="288.92838"
       y1="183.77837"
       x2="316.00681"
       y2="183.77837" />
    <radialGradient
       inkscape:collect="always"
       xlink:href="#linearGradient3198"
       id="radialGradient5191"
       gradientUnits="userSpaceOnUse"
       gradientTransform="matrix(1,0,0,0.9017059,0,17.268881)"
       cx="337.08917"
       cy="175.68588"
       fx="337.08917"
       fy="175.68588"
       r="31.965738" />
    <linearGradient
       inkscape:collect="always"
       xlink:href="#linearGradient4746"
       id="linearGradient5193"
       gradientUnits="userSpaceOnUse"
       x1="305.12344"
       y1="175.68588"
       x2="369.0549"
       y2="175.68588" />
  </defs>
  <sodipodi:namedview
     inkscape:window-height="749"
     inkscape:window-width="1274"
     inkscape:pageshadow="2"
     inkscape:pageopacity="0.0"
     guidetolerance="10.0"
     gridtolerance="10.0"
     objecttolerance="10.0"
     borderopacity="1.0"
     bordercolor="#666666"
     pagecolor="#ffffff"
     id="base"
     showgrid="true"
     inkscape:zoom="1.2524652"
     inkscape:cx="354.24537"
     inkscape:cy="898.36443"
     inkscape:window-x="0"
     inkscape:window-y="0"
     inkscape:current-layer="svg2">
    <inkscape:grid
       type="xygrid"
       id="grid2404" />
  </sodipodi:namedview>
  <g
     id="g4802"
     transform="translate(-3.22381,-205.22787)">
    <path
       d="M 70.188278,258.07295 C 70.211261,254.05803 70.283436,250.04456 70.217931,246.02936 C 70.199199,244.8812 69.96651,237.60329 69.966356,236.23993 C 69.96619,234.77507 70.03844,233.3111 70.074482,231.84668 C 70.536093,227.39054 71.493307,222.97232 72.995317,218.74721 C 73.503992,217.31633 74.698659,214.08665 76.133291,213.0679 C 78.95952,211.06096 82.126327,209.58292 85.122845,207.84044 C 86.349062,207.80334 87.577583,207.64536 88.801496,207.72916 C 90.246216,207.82808 91.67362,208.11362 93.09581,208.38635 C 99.016451,209.5217 104.626,211.60857 110.27418,213.65402 C 115.79551,215.38091 121.71532,217.66618 127.59263,217.71957 C 129.3163,217.73522 131.09449,217.66046 132.72769,217.10917 C 134.38603,216.54939 136.30401,215.92321 137.25923,214.45658 C 137.71659,213.75436 136.27224,213.10195 135.77874,212.42463 C 137.10738,209.59981 138.62241,206.85535 139.76466,203.95015 C 141.04872,200.68428 142.05868,197.31429 143.044,193.94622 C 146.15885,183.29886 147.99179,172.31198 149.89412,161.40127 C 150.84483,156.23465 151.58029,151.03395 152.32493,145.83522 C 152.64893,143.57323 152.8049,141.99044 153.46978,139.81065 C 153.79051,138.75916 154.22949,137.74745 154.60935,136.71585 C 156.90027,131.63125 159.85133,126.7405 163.89499,122.86005 C 166.72194,121.28894 169.43922,119.50184 172.37583,118.14673 C 173.26886,117.73464 176.14045,118.07463 176.94781,118.16423 C 177.56981,118.23327 180.81537,118.69195 181.50778,118.856 C 182.24372,119.03035 182.95372,119.30014 183.67669,119.52222 C 186.13703,120.35515 188.51304,121.41456 190.95107,122.306 C 192.18777,122.75819 193.98955,123.47053 195.37512,123.33366 C 196.15665,123.25646 196.87305,122.86123 197.62202,122.62502 C 196.28864,123.26305 194.33688,125.83285 193.62187,124.53911 C 192.87767,123.19257 195.85131,122.41233 196.86468,121.2547 C 198.03186,119.92139 199.09594,118.49993 200.15329,117.07795 C 203.57239,112.47975 206.53702,107.58027 209.54145,102.70913 C 217.05045,90.287605 225.32522,78.364953 234.10889,66.817576 C 237.17857,62.958679 240.41114,59.237246 243.76039,55.6202 C 245.02371,54.255874 246.3094,52.839675 247.71433,51.613039 C 248.47859,50.945762 249.29574,50.341606 250.08645,49.705889 C 251.13223,49.00061 252.17802,48.29533 253.22381,47.590051 L 260.06133,44.911973 C 259.0728,45.573164 258.08428,46.234355 257.09575,46.895545 C 256.32338,47.502299 255.52953,48.082665 254.77863,48.715805 C 253.36196,49.910313 251.72752,51.544106 250.43588,52.836304 C 246.78381,56.489968 243.27526,60.281278 240.00752,64.286335 C 236.26499,69.038432 234.99659,70.546594 231.39417,75.558646 C 225.72621,83.444461 220.54199,91.674538 215.59705,100.02838 C 212.69176,104.91023 209.74953,109.72651 206.4622,114.36453 C 205.82719,115.26044 201.79717,120.90475 200.60713,121.78362 C 197.74724,123.89573 194.52878,125.47329 191.4896,127.31813 C 190.66318,127.48249 189.85282,127.79658 189.01035,127.81122 C 187.5368,127.83684 185.91266,127.08499 184.59127,126.57342 C 182.1654,125.63425 179.74616,124.67509 177.2548,123.91716 C 174.36658,123.13395 171.27468,122.39419 168.25252,122.64379 C 167.55676,122.70125 165.68795,123.52215 166.19677,123.04415 C 167.63286,121.69503 169.52663,120.93654 171.19157,119.88274 C 170.69178,120.30523 170.16398,120.69666 169.6922,121.15022 C 166.1263,124.57836 163.46576,129.12157 161.38626,133.55836 C 161.0206,134.55485 160.61365,135.53716 160.28926,136.54784 C 159.71331,138.34231 159.15646,140.87959 158.76757,142.69116 C 157.62832,147.99807 156.60065,153.32923 155.54161,158.65237 C 153.37799,169.76952 150.86558,180.77916 147.81817,191.69212 C 146.89387,195.0021 146.02034,198.33072 144.916,201.58506 C 143.95846,204.4068 142.73116,207.12968 141.63874,209.90199 C 138.45141,212.8083 132.63008,219.64331 127.18768,221.21658 C 125.55397,221.68885 123.7991,221.66994 122.10008,221.59688 C 116.1321,221.34028 110.33364,218.97596 104.62695,217.48597 C 102.8805,216.95298 101.12972,216.43398 99.38761,215.887 C 94.103463,214.22789 88.529656,212.03407 82.900565,212.09129 C 81.662343,212.10388 80.446298,212.42292 79.219164,212.58874 C 80.501408,211.76141 81.546113,210.24414 83.065898,210.10676 C 84.084635,210.01467 81.604069,211.56124 81.052964,212.42297 C 80.403513,213.43849 79.94706,214.56914 79.496934,215.68737 C 77.832134,219.82317 76.866599,224.20749 76.430799,228.63535 C 76.056935,237.15306 76.01058,245.7739 77.459453,254.20184 L 70.188278,258.07295 z"
       id="path4796"
       style="opacity:1;fill:#d7ea00;fill-opacity:1;fill-rule:evenodd;stroke:#000000;stroke-width:1;stroke-linecap:butt;stroke-linejoin:round;stroke-miterlimit:4;stroke-dasharray:none;stroke-opacity:1" />
    <path
       d="M 141.55419,242.33446 C 147.59244,233.27645 152.92789,223.76524 158.12741,214.2083 C 160.79772,209.22984 163.27919,204.15389 165.87712,199.13814 C 167.06574,196.84329 168.2512,194.62965 169.73616,192.51817 C 174.82758,186.90203 179.27321,186.5065 185.61146,186.52862 C 190.34472,186.77656 195.10026,186.77639 199.76112,185.77761 C 201.02938,185.50583 202.26687,185.10634 203.51974,184.7707 C 204.69205,184.22687 205.87698,183.70949 207.03665,183.13921 C 208.00499,182.66301 204.11996,185.56715 204.09388,184.48836 C 204.06217,183.177 206.09528,182.78551 207.00525,181.84072 C 209.87424,178.86199 211.73865,175.39136 213.65855,171.77568 C 217.30249,163.97156 220.75188,156.08267 224.97738,148.56857 C 226.45723,146.26399 227.98294,143.85103 230.12229,142.08338 C 232.8121,139.86091 236.15458,138.57392 239.2061,136.88196 C 239.60156,136.79935 239.98849,136.63783 240.39246,136.63413 C 242.88679,136.61125 246.19957,138.41982 248.35757,139.46493 C 249.31516,139.92869 250.27734,140.38294 251.23722,140.84194 C 253.98475,142.08657 256.81603,143.14326 259.71552,143.97564 C 261.18008,144.39609 262.72634,144.82428 264.26749,144.85044 C 265.04383,144.86361 265.81477,144.71845 266.58841,144.65245 C 267.37202,144.37696 269.57987,143.29725 268.93925,143.82598 C 267.76766,144.79292 266.45812,146.0837 264.94072,146.01235 C 263.73741,145.95576 266.88202,144.57887 267.77586,143.77127 C 270.96717,140.88783 273.5053,137.43849 276.0519,134.00353 C 279.64207,129.43322 282.23979,124.13868 285.96564,119.67098 C 286.63178,118.87221 287.35985,118.12719 288.05696,117.35529 C 290.14137,115.35268 292.38547,113.48557 294.89396,112.03107 C 300.37455,108.85326 302.07306,107.24611 307.1134,106.15159 C 309.1214,105.7391 311.17357,106.0315 313.16955,105.55839 C 315.24802,105.06574 315.57809,104.82282 317.63524,103.96634 C 318.43682,103.5866 320.78131,102.3401 320.03999,102.82712 C 318.7181,103.69556 317.4095,104.69883 315.88408,105.11679 C 314.87217,105.39406 317.61262,103.92388 318.43146,103.26786 C 320.47648,101.62948 322.38441,99.692349 324.34237,97.965613 C 325.71167,96.758015 327.1195,95.594823 328.50807,94.409427 C 333.98803,90.214985 339.23042,85.592297 345.17432,82.03746 C 353.40168,77.116962 353.56931,77.107345 360.12261,73.678696 C 363.81442,71.802475 367.53118,69.981626 371.28632,68.236425 L 365.45341,72.869922 C 361.85405,74.495563 358.28485,76.183498 354.76739,77.981379 C 353.22201,78.802611 351.70053,79.670494 350.13125,80.445074 C 349.57176,80.721237 352.25173,79.129963 351.73422,79.478517 C 350.43798,80.351568 349.08554,81.139542 347.79388,82.019353 C 343.31731,85.068544 339.05319,88.429855 334.84721,91.836569 C 333.55754,92.97169 332.24637,94.082844 330.97819,95.241932 C 329.58153,96.518449 326.93424,99.197555 325.41599,100.49101 C 321.32939,103.97254 316.50364,106.53114 311.61574,108.70395 C 309.55252,109.51705 308.92491,109.86617 306.81321,110.32912 C 304.82871,110.76418 302.78082,110.49165 300.80004,110.96572 C 300.25646,111.10463 299.70333,111.21044 299.16929,111.38245 C 296.5095,112.23918 294.75188,113.68502 302.04447,109.25675 C 302.80091,108.79741 300.50908,110.13995 299.77314,110.63148 C 297.47071,112.16926 297.10834,112.6059 294.99332,114.44613 C 294.29828,115.19539 293.57355,115.91815 292.90821,116.69391 C 291.24541,118.63268 290.79531,119.43599 289.32566,121.53218 C 287.0707,124.7485 284.83066,127.97479 282.56732,131.18534 C 280.30844,134.3366 279.80501,135.19195 277.30176,138.09497 C 276.12637,139.45807 273.60249,142.26475 271.99016,143.29597 C 269.03425,145.1865 265.98419,146.93759 262.85942,148.53362 C 262.08712,148.92808 261.18993,149.00369 260.35518,149.23872 C 259.54211,149.26832 258.72809,149.37688 257.91599,149.32752 C 256.30042,149.22934 254.92024,148.7665 253.39922,148.26247 C 250.54459,147.31652 247.75385,146.18709 245.00265,144.97578 C 242.1026,143.71254 237.22672,141.06898 233.95786,141.56347 C 233.57502,141.62139 233.21896,141.79519 232.84951,141.91105 C 234.79892,140.74334 236.75411,139.58522 238.69776,138.40793 C 239.08146,138.17552 237.89853,138.821 237.52963,139.07625 C 235.13919,140.73018 233.45165,143.24574 231.77087,145.55263 C 231.16336,146.53153 230.52509,147.49199 229.94833,148.48931 C 226.17476,155.01451 223.308,161.98628 220.18738,168.8312 C 218.75436,171.70249 218.04128,173.41805 216.19446,176.0255 C 211.70991,182.35707 204.90329,186.41917 197.74524,189.19388 C 196.47938,189.51033 195.22643,189.8839 193.94765,190.14325 C 189.08858,191.12874 184.08497,191.28933 179.14315,191.22585 C 177.5163,191.22409 175.87091,191.19761 174.26193,191.48971 C 173.72457,191.58727 172.24258,192.2261 172.67323,191.89024 C 173.98176,190.86969 180.82652,186.51249 176.98808,189.40711 C 175.11144,191.62046 173.7947,193.73064 172.31411,196.25094 C 169.32623,201.337 166.55336,206.54686 163.70223,211.70936 C 158.77552,220.76014 153.7337,229.75465 149.17607,238.99963 L 141.55419,242.33446 z"
       id="path4798"
       style="opacity:1;fill:#d7ea00;fill-opacity:1;fill-rule:evenodd;stroke:#000000;stroke-width:1;stroke-linecap:butt;stroke-linejoin:round;stroke-miterlimit:4;stroke-dasharray:none;stroke-opacity:1" />
    <path
       d="M 182.41791,263.96839 C 182.89517,263.23996 183.34521,262.49294 183.8497,261.78309 C 186.05321,258.68256 187.68464,256.73257 190.27712,253.73289 C 194.56799,248.76804 198.57094,244.39107 203.18008,239.64353 C 206.13341,236.60152 209.16849,233.63995 212.16269,230.63816 C 220.71846,222.5157 229.25491,214.29608 238.62001,207.09002 C 241.15841,205.13682 243.73019,203.21445 246.43826,201.50424 C 257.41696,194.57095 256.66806,195.2493 266.45295,191.04475 C 273.34175,188.61926 280.55285,187.44777 287.82928,187.08839 C 294.31972,186.76783 300.85238,187.21873 307.33567,187.48799 C 313.24439,187.53613 319.33084,188.61641 325.16773,187.18723 C 329.36374,186.15982 329.98821,185.49257 333.81985,183.41543 C 333.29003,183.3723 331.97612,183.75284 332.2304,183.28604 C 333.28941,181.3419 335.27657,180.06032 336.61006,178.29312 C 338.1683,176.22808 339.53504,174.02253 340.88545,171.81597 C 345.05447,165.00384 348.59573,157.83212 352.10611,150.669 C 355.21186,144.06319 358.11736,137.35176 361.96542,131.13283 C 364.63578,127.20381 366.86136,126.7771 372.11237,124.14076 C 372.42574,123.98343 372.80918,124.06155 373.15713,124.01823 C 373.52408,123.97254 373.89039,123.9219 374.25702,123.87373 C 379.82228,122.9803 384.99031,120.61817 390.03237,118.20453 C 391.45625,117.43257 392.91131,116.71554 394.304,115.88865 C 394.74677,115.62576 392.48994,116.83386 392.88901,116.50844 C 394.34617,115.32018 395.99745,114.39057 397.51028,113.27405 C 401.99131,109.96687 406.08882,106.2973 410.15971,102.50963 C 414.554,98.49414 418.28378,93.830018 422.5455,89.687024 C 425.72989,86.854166 429.31633,85.327933 433.33008,83.420695 C 433.83909,83.178825 434.43147,83.181272 434.98134,83.057814 C 436.83064,82.642603 436.23964,82.7829 437.99458,82.305594 C 438.60713,81.973589 440.5271,81.25828 439.83225,81.309581 C 438.77812,81.387406 436.28912,83.285308 436.851,82.390022 C 438.09317,80.410773 440.38955,79.334338 442.08267,77.723818 C 444.06608,75.837171 445.99193,73.88923 447.87573,71.903125 C 453.71812,65.743466 453.92313,65.18356 459.30975,58.433967 C 461.01696,56.055252 462.72416,53.676537 464.43137,51.297822 L 469.72473,49.003956 C 468.00074,51.399152 466.27675,53.794348 464.55277,56.189544 C 462.71496,58.549557 460.94977,60.967949 459.03936,63.269582 C 456.25255,66.627081 451.13373,72.117775 448.02603,75.286371 C 446.54326,76.798196 445.16937,78.44536 443.48584,79.729863 C 436.70253,84.905406 436.54444,84.856506 431.62716,87.182375 C 430.64033,87.423582 429.64727,87.638984 428.66133,87.883801 C 428.11595,88.019225 426.59128,88.666071 427.03233,88.317851 C 428.69531,87.004893 430.62622,86.072314 432.40798,84.925732 C 432.81143,84.666111 431.564,85.385635 431.16802,85.6565 C 430.69049,85.983143 430.25093,86.362089 429.79239,86.714884 C 425.15174,90.872975 421.29172,95.831142 416.54946,99.893486 C 412.40868,103.67255 408.27617,107.41716 403.79343,110.79527 C 402.3137,111.91036 400.83915,113.03959 399.27454,114.03209 C 395.86512,116.19484 392.3732,118.22569 388.8822,120.25412 C 387.44357,121.09002 385.95323,121.83356 384.48875,122.62328 C 379.12957,125.18838 373.65432,127.73034 367.75307,128.74832 C 364.02421,129.3741 363.22053,130.68348 371.83574,125.50006 C 372.10724,125.33671 371.26636,125.78664 371.01489,125.9794 C 370.27699,126.54502 369.7599,127.26721 369.17066,127.97734 C 364.7221,134.29994 361.3527,141.26181 357.7878,148.10167 C 355.29552,152.88061 353.02778,157.25939 350.47304,162.02545 C 349.16082,164.47349 347.88031,166.9398 346.49504,169.34725 C 344.85584,172.19602 341.23999,178.4332 338.50496,180.75073 C 335.37702,183.40118 331.77074,185.42895 328.40363,187.76806 C 324.42492,189.81981 323.76765,190.48212 319.43869,191.48127 C 313.6651,192.81385 307.79492,191.65162 301.9837,191.33637 C 288.17283,190.54831 275.06817,190.08078 261.76883,194.748 C 259.70798,195.63742 254.19023,197.74491 251.53839,199.49293 C 238.76879,207.91029 227.37939,218.17933 216.46938,228.84915 C 213.66386,231.76611 210.80704,234.63459 208.05282,237.60004 C 203.71179,242.27399 200.35116,246.21089 196.42461,251.1086 C 194.38848,253.64833 192.60952,255.91598 190.91836,258.64901 C 190.53203,259.27334 190.22669,259.94428 189.88085,260.59192 L 182.41791,263.96839 z"
       id="path4800"
       style="opacity:1;fill:#d7ea00;fill-opacity:1;fill-rule:evenodd;stroke:#000000;stroke-width:1;stroke-linecap:butt;stroke-linejoin:round;stroke-miterlimit:4;stroke-dasharray:none;stroke-opacity:1" />
  </g>
  <g
     id="g5195"
     inkscape:export-xdpi="57.613602"
     inkscape:export-ydpi="57.613602">
    <path
       id="path2414"
       d="M 282.90246,280.5916 C 250.12532,108.68854 310,102.36218 310,102.36218 C 310,102.36218 286.37891,111.95614 287.79376,172.76731 C 289.2086,233.57848 265.58751,243.17245 274.24498,261.88202 C 282.90246,280.5916 283.53287,282.03545 282.90246,280.5916 z"
       style="fill:url(#linearGradient5158);fill-opacity:1;fill-rule:evenodd;stroke:url(#linearGradient5160);stroke-width:1px;stroke-linecap:butt;stroke-linejoin:miter;stroke-opacity:1" />
    <path
       sodipodi:nodetypes="ccsc"
       id="path2408"
       d="M 311.44509,153.11007 C 314.72106,209.75746 370,202.36218 370,202.36218 C 370,202.36218 353.81503,145.71479 321.44509,145.71479 C 289.07516,145.71479 306.44509,155.49628 311.44509,153.11007 z"
       style="fill:url(#radialGradient5191);fill-opacity:1;fill-rule:evenodd;stroke:url(#linearGradient5193);stroke-width:1;stroke-linecap:butt;stroke-linejoin:miter;stroke-miterlimit:4;stroke-dasharray:none;stroke-opacity:1" />
    <path
       id="path2410"
       d="M 303.81503,147.36218 C 271.4451,179.73212 303.81503,220.19454 303.81503,220.19454 C 303.81503,220.19454 330.12153,187.68001 303.81503,147.36218 z"
       style="fill:url(#linearGradient5186);fill-opacity:1;fill-rule:evenodd;stroke:url(#linearGradient5188);stroke-width:1;stroke-linecap:butt;stroke-linejoin:miter;stroke-miterlimit:4;stroke-dasharray:none;stroke-opacity:1" />
    <path
       id="path2406"
       d="M 303.81503,147.36218 C 303.81503,204.00957 343.81503,220.19454 343.81503,220.19454 C 343.81503,220.19454 343.81503,220.19454 343.81503,220.19454 C 343.81503,220.19454 344.24533,162.75643 303.81503,147.36218 z"
       style="fill:#d7ea00;fill-opacity:1;fill-rule:evenodd;stroke:url(#radialGradient5183);stroke-width:1px;stroke-linecap:butt;stroke-linejoin:miter;stroke-opacity:1" />
    <path
       id="path2423"
       d="M 275,172.36218 C 295,142.36218 305,147.36218 305,147.36218"
       style="fill:none;fill-rule:evenodd;stroke:url(#linearGradient5151);stroke-width:1px;stroke-linecap:butt;stroke-linejoin:miter;stroke-opacity:1" />
    <path
       d="M 272.35582,162.27787 C 271.9779,162.44857 271.59484,162.60834 271.22206,162.78998 C 269.26195,163.74504 266.60284,165.2562 267.04799,165.00558 C 273.00388,161.65227 268.93936,163.96469 265.98748,166.13576 C 264.46478,167.25569 263.01292,168.46887 261.52564,169.63543 C 253.45239,176.31778 246.56072,184.23308 240,192.36218 C 234.49472,199.5557 229.24487,206.96854 224.75332,214.84508 C 223.94649,216.25997 223.20153,217.70925 222.42564,219.14134 C 219.92429,223.94086 217.81392,228.92659 215.80449,233.94702 C 215.06296,235.7935 214.36367,237.63446 214.02077,239.59837 C 213.81117,241.48245 213.65916,243.46396 214.21344,245.30979 C 214.39023,245.89853 214.63769,246.46369 214.84981,247.04065 C 217.24428,251.43855 221.02794,254.97 225.08459,257.84337 C 226.06741,258.53952 227.10256,259.15866 228.11154,259.8163 C 231.78855,261.91857 235.5722,264.17572 239.78083,265.03491 C 240.30444,265.14181 240.8399,265.17891 241.36943,265.25091 C 242.8952,265.23997 242.73032,265.37472 244.18473,264.82283 C 244.6407,264.64981 245.93275,263.96106 245.51298,264.20933 C 235.54999,270.10192 240.34146,267.21853 242.66783,265.25327 C 246.2239,261.85207 247.34246,256.77293 248.56919,252.18249 C 249.85678,246.69058 250.40302,241.06801 250.23341,235.43109 C 250.12189,231.72465 249.85592,229.87543 249.46564,226.24226 C 248.76652,220.55395 247.78093,214.87903 246.16759,209.37092 C 245.04688,205.54474 244.45341,204.33378 242.95059,200.58225 C 238.57873,191.03585 232.62709,182.34844 226.41741,173.925 C 223.4101,169.8541 220.15057,165.97876 217.13017,161.91832 C 216.32708,160.57636 215.02891,158.70158 215.56919,157.0042 C 215.70864,156.56608 215.96483,156.17412 216.16266,155.75907 C 219.51301,151.02782 223.93225,147.08073 228.69682,143.809 C 229.91832,142.97023 231.19586,142.21614 232.44537,141.4197 C 235.79266,139.59399 239.08902,137.67165 242.48722,135.94256 C 243.69896,135.32601 244.98889,134.87525 246.25926,134.39089 C 249.07435,133.31756 252.03522,132.34913 255.0134,131.83561 C 255.84725,131.69184 256.69294,131.62809 257.53271,131.52433 C 261.08131,131.28071 264.71196,131.13752 268.05586,132.5055 C 269.86825,133.51612 270.22377,134.68152 270.16489,136.65413 C 269.56048,140.3011 268.61136,143.87791 267.84022,147.49141 C 267.68309,148.11394 267.54578,148.74181 267.36883,149.359 C 266.50385,152.37583 265.47117,155.34653 264.58266,158.35689 C 263.73191,161.2393 263.64135,161.69441 262.91939,164.515 C 262.73164,165.33813 262.54388,166.16127 262.35613,166.98441 L 255.432,170.30197 C 255.66068,169.45425 255.88936,168.60652 256.11804,167.7588 C 257.68874,162.15745 259.38548,156.58913 260.71333,150.92249 C 261.57018,147.42905 262.44673,143.93577 262.85118,140.35342 C 262.89867,138.7353 262.83603,137.87707 261.28994,137.02952 C 258.1483,135.73542 254.69993,135.87182 251.36868,136.1307 C 247.65284,136.67781 244.09348,137.52853 240.57329,138.87279 C 239.3439,139.34226 238.2436,140.41223 236.92784,140.38832 C 236.04682,140.37232 238.35891,139.35981 239.07445,138.84556 C 237.82326,139.62495 236.54421,140.36131 235.32087,141.18373 C 230.80409,144.22028 226.60523,147.91977 223.54492,152.45058 C 223.34787,152.75991 223.10666,153.04519 222.95377,153.37857 C 222.27568,154.85713 223.32994,156.63776 223.99533,157.87834 C 226.7282,162.11313 229.91419,166.02698 232.6536,170.25918 C 236.32474,176.00848 240.0828,181.70023 243.6345,187.52519 C 244.63308,189.16291 245.65872,190.78549 246.59663,192.45869 C 247.46205,194.0026 248.2268,195.60083 249.04189,197.1719 C 249.67795,198.66813 250.36608,200.14328 250.95007,201.66059 C 253.57341,208.47648 254.92839,215.72637 255.76546,222.95549 C 255.94162,225.00177 256.41165,230.25406 256.506,232.22782 C 256.77504,237.85586 256.40624,243.47105 255.23473,248.98923 C 254.35308,252.78558 254.64284,251.83958 253.56093,255.39103 C 252.79703,257.89858 252.05261,260.42888 250.0526,262.25102 C 246.69543,265.30218 243.66031,266.73952 239.21555,269.17049 C 238.49852,269.56266 237.08375,269.89693 236.28334,269.93737 C 235.80044,269.96176 235.31908,269.86432 234.83694,269.82779 C 230.07419,268.82297 226.0014,266.36681 221.92244,263.78759 C 216.55858,260.28142 211.38536,256.43698 207.96642,250.89728 C 207.4338,249.7508 206.96445,248.94867 206.7143,247.72519 C 206.41353,246.25417 206.66861,244.68972 206.68161,243.20891 C 206.91251,241.1084 207.66251,239.19804 208.54815,237.28697 C 210.84512,232.08634 213.42987,227.02252 216.07234,221.9897 C 216.86239,220.54005 217.61844,219.07134 218.4425,217.64075 C 222.96302,209.79304 228.27487,202.45252 233.56619,195.11637 C 234.52899,193.86521 235.45363,192.58373 236.45461,191.3629 C 237.36458,190.25305 238.33917,189.19768 239.29601,188.12799 C 244.31463,182.51748 249.58693,177.12142 255.24822,172.15461 C 256.65958,171.00223 258.03797,169.80825 259.4823,168.69747 C 264.17996,165.08468 267.09846,163.6665 272.94287,160.25197 C 274.14964,159.54692 276.18122,158.43693 277.53389,157.79014 C 277.97791,157.57783 278.43696,157.39849 278.88849,157.20266 L 272.35582,162.27787 z"
       id="path4692"
       style="fill:#d70000;fill-opacity:1;fill-rule:evenodd;stroke:none;stroke-width:0.5;stroke-linecap:butt;stroke-linejoin:round;stroke-miterlimit:4;stroke-dasharray:none;stroke-opacity:1" />
  </g>
</svg>
